<svg width="61" height="63" viewBox="0 0 61 63" fill="none" xmlns="http://www.w3.org/2000/svg">
<g clip-path="url(#clip0_1_82)">
<path d="M16.9165 48.4999C14.2582 48.4999 12.1073 50.6749 12.1073 53.3333C12.1073 55.9916 14.2582 58.1666 16.9165 58.1666C19.5748 58.1666 21.7498 55.9916 21.7498 53.3333C21.7498 50.6749 19.5748 48.4999 16.9165 48.4999ZM2.4165 9.83325V14.6666H7.24984L15.9498 33.0091L12.6873 38.9299C12.3007 39.6066 12.0832 40.4041 12.0832 41.2499C12.0832 43.9083 14.2582 46.0833 16.9165 46.0833H45.9165V41.2499H17.9315C17.5932 41.2499 17.3273 40.9841 17.3273 40.6458L17.3998 40.3558L19.5748 36.4166H37.579C39.3915 36.4166 40.9865 35.4258 41.8082 33.9274L50.4598 18.2433C50.6532 17.9049 50.7498 17.4941 50.7498 17.0833C50.7498 15.7541 49.6623 14.6666 48.3332 14.6666H12.5907L10.319 9.83325H2.4165ZM41.0832 48.4999C38.4248 48.4999 36.274 50.6749 36.274 53.3333C36.274 55.9916 38.4248 58.1666 41.0832 58.1666C43.7415 58.1666 45.9165 55.9916 45.9165 53.3333C45.9165 50.6749 43.7415 48.4999 41.0832 48.4999Z" fill="white"/>
</g>
<circle cx="51" cy="10" r="10" fill="#83FA9D"/>
<path d="M51.5252 14.12C51.1012 14.12 50.7092 14.036 50.3492 13.868C49.9892 13.7 49.6772 13.436 49.4132 13.076C49.1572 12.716 48.9572 12.256 48.8132 11.696C48.6692 11.136 48.5972 10.468 48.5972 9.692C48.5972 8.916 48.6692 8.252 48.8132 7.7C48.9572 7.14 49.1572 6.684 49.4132 6.332C49.6772 5.972 49.9892 5.708 50.3492 5.54C50.7092 5.372 51.1012 5.288 51.5252 5.288C51.9492 5.288 52.3372 5.372 52.6892 5.54C53.0412 5.708 53.3452 5.968 53.6012 6.32C53.8572 6.672 54.0572 7.124 54.2012 7.676C54.3452 8.228 54.4172 8.892 54.4172 9.668C54.4172 10.444 54.3452 11.112 54.2012 11.672C54.0572 12.232 53.8572 12.696 53.6012 13.064C53.3452 13.424 53.0412 13.692 52.6892 13.868C52.3372 14.036 51.9492 14.12 51.5252 14.12ZM51.5132 12.956C51.7532 12.956 51.9612 12.904 52.1372 12.8C52.3212 12.688 52.4732 12.504 52.5932 12.248C52.7132 11.992 52.8052 11.66 52.8692 11.252C52.9332 10.836 52.9652 10.32 52.9652 9.704C52.9652 9.096 52.9332 8.588 52.8692 8.18C52.8132 7.764 52.7252 7.428 52.6052 7.172C52.4852 6.916 52.3332 6.732 52.1492 6.62C51.9732 6.508 51.7652 6.452 51.5252 6.452C51.2852 6.452 51.0732 6.508 50.8892 6.62C50.7052 6.732 50.5492 6.916 50.4212 7.172C50.3012 7.428 50.2092 7.764 50.1452 8.18C50.0812 8.588 50.0492 9.096 50.0492 9.704C50.0492 10.32 50.0812 10.836 50.1452 11.252C50.2092 11.66 50.3012 11.992 50.4212 12.248C50.5412 12.504 50.6932 12.688 50.8772 12.8C51.0612 12.904 51.2732 12.956 51.5132 12.956Z" fill="#060C14"/>
<defs>
<clipPath id="clip0_1_82">
<rect width="58" height="58" fill="white" transform="translate(0 5)"/>
</clipPath>
</defs>
</svg>
