<svg width="54" height="54" viewBox="0 0 54 54" fill="none" xmlns="http://www.w3.org/2000/svg">
<path fill-rule="evenodd" clip-rule="evenodd" d="M27.0001 2.16675C13.285 2.16675 2.16675 13.285 2.16675 27.0001C2.16675 40.7152 13.285 51.8334 27.0001 51.8334C40.7152 51.8334 51.8334 40.7152 51.8334 27.0001C51.8334 13.285 40.7152 2.16675 27.0001 2.16675ZM0.166748 27.0001C0.166748 12.1804 12.1804 0.166748 27.0001 0.166748C41.8197 0.166748 53.8334 12.1804 53.8334 27.0001C53.8334 41.8197 41.8197 53.8334 27.0001 53.8334C12.1804 53.8334 0.166748 41.8197 0.166748 27.0001Z" fill="white"/>
<path fill-rule="evenodd" clip-rule="evenodd" d="M35.4572 18.543C35.8477 18.9335 35.8477 19.5667 35.4572 19.9572L19.9572 35.4572C19.5667 35.8477 18.9335 35.8477 18.543 35.4572C18.1525 35.0667 18.1525 34.4335 18.543 34.043L34.043 18.543C34.4335 18.1525 35.0667 18.1525 35.4572 18.543Z" fill="white"/>
<path fill-rule="evenodd" clip-rule="evenodd" d="M18.543 18.543C18.9335 18.1525 19.5667 18.1525 19.9572 18.543L35.4572 34.043C35.8477 34.4335 35.8477 35.0667 35.4572 35.4572C35.0667 35.8477 34.4335 35.8477 34.043 35.4572L18.543 19.9572C18.1525 19.5667 18.1525 18.9335 18.543 18.543Z" fill="white"/>
</svg>
