<svg width="58" height="58" viewBox="0 0 58 58" fill="none" xmlns="http://www.w3.org/2000/svg">
<g clip-path="url(#clip0_1_83)">
<path d="M16.9165 43.4999C14.2582 43.4999 12.1073 45.6749 12.1073 48.3333C12.1073 50.9916 14.2582 53.1666 16.9165 53.1666C19.5748 53.1666 21.7498 50.9916 21.7498 48.3333C21.7498 45.6749 19.5748 43.4999 16.9165 43.4999ZM2.4165 4.83325V9.66659H7.24984L15.9498 28.0091L12.6873 33.9299C12.3007 34.6066 12.0832 35.4041 12.0832 36.2499C12.0832 38.9083 14.2582 41.0833 16.9165 41.0833H45.9165V36.2499H17.9315C17.5932 36.2499 17.3273 35.9841 17.3273 35.6458L17.3998 35.3558L19.5748 31.4166H37.579C39.3915 31.4166 40.9865 30.4258 41.8082 28.9274L50.4598 13.2433C50.6532 12.9049 50.7498 12.4941 50.7498 12.0833C50.7498 10.7541 49.6623 9.66659 48.3332 9.66659H12.5907L10.319 4.83325H2.4165ZM41.0832 43.4999C38.4248 43.4999 36.274 45.6749 36.274 48.3333C36.274 50.9916 38.4248 53.1666 41.0832 53.1666C43.7415 53.1666 45.9165 50.9916 45.9165 48.3333C45.9165 45.6749 43.7415 43.4999 41.0832 43.4999Z" fill="white"/>
</g>
<defs>
<clipPath id="clip0_1_83">
<rect width="58" height="58" fill="white"/>
</clipPath>
</defs>
</svg>
